<?xml version="1.0" ?><svg height="100%" id="Layer_1" version="1.1" viewBox="0 0 512 512" width="100%" xml:space="preserve" xmlns="http://www.w3.org/2000/svg" xmlns:cc="http://creativecommons.org/ns#" xmlns:dc="http://purl.org/dc/elements/1.1/" xmlns:rdf="http://www.w3.org/1999/02/22-rdf-syntax-ns#" xmlns:svg="http://www.w3.org/2000/svg" xmlns:xlink="http://www.w3.org/1999/xlink"><defs id="defs138"><linearGradient gradientUnits="userSpaceOnUse" id="linearGradient3191" x1="64.839302" x2="391.7475" xlink:href="#SVGID_1_" y1="259.7858" y2="259.7858"/><linearGradient gradientUnits="userSpaceOnUse" id="linearGradient3193" x1="128.3446" x2="128.3446" xlink:href="#SVGID_2_" y1="9.3394003" y2="505.33939"/><linearGradient gradientUnits="userSpaceOnUse" id="linearGradient3195" x1="339.47791" x2="339.47791" xlink:href="#SVGID_3_" y1="9.3394003" y2="505.33939"/><linearGradient gradientUnits="userSpaceOnUse" id="linearGradient3197" x1="351.47791" x2="351.47791" xlink:href="#SVGID_4_" y1="13.1767" y2="518.72559"/><linearGradient gradientUnits="userSpaceOnUse" id="linearGradient3199" x1="99.477898" x2="99.477898" xlink:href="#SVGID_5_" y1="8.5118999" y2="518.85248"/><linearGradient gradientUnits="userSpaceOnUse" id="linearGradient3201" x1="118.4741" x2="118.4741" xlink:href="#SVGID_6_" y1="162.55431" y2="246.8448"/><linearGradient gradientUnits="userSpaceOnUse" id="linearGradient3203" x1="118.4722" x2="118.4722" xlink:href="#SVGID_7_" y1="157.22099" y2="243.6566"/><linearGradient gradientUnits="userSpaceOnUse" id="linearGradient3205" x1="55.5116" x2="69.378799" xlink:href="#SVGID_8_" y1="257.33939" y2="257.33939"/><linearGradient gradientUnits="userSpaceOnUse" id="linearGradient3207" x1="353.47409" x2="353.47409" xlink:href="#SVGID_9_" y1="46.554298" y2="130.8448"/><linearGradient gradientUnits="userSpaceOnUse" id="linearGradient3209" x1="353.4722" x2="353.4722" xlink:href="#SVGID_10_" y1="41.221001" y2="127.6566"/><linearGradient gradientUnits="userSpaceOnUse" id="linearGradient3211" x1="290.5116" x2="304.37881" xlink:href="#SVGID_11_" y1="141.3394" y2="141.3394"/></defs><g id="g3117" transform="translate(-0.5,-1.3)"><g id="g3"><g id="g5"><path d="m 335.4,447 c 0,-11.3 0,-22.6 11.3,-22.6 11.3,0 22.5,11.3 33.8,11.3 11.3,0 11.3,-11.3 11.3,-22.5 0,-11.3 -33.8,-22.6 -33.8,-33.8 0,-11.2 -33.8,0 -45.1,-11.3 -11.3,-11.3 -45.1,-56.4 -45.1,-67.6 0,-11.3 -11.3,-11.3 -11.3,-33.8 0,-22.5 67.6,-45.1 67.6,-56.4 0,-11.3 0,-11.3 -11.3,-11.3 -11.3,0 -45.1,33.8 -56.4,33.8 -11.3,0 -22.5,-11.3 -22.5,-33.8 0,-22.5 33.8,-90.2 33.8,-101.5 0,-11.3 0,-22.5 -11.3,-22.5 -11.3,0 -45.1,56.4 -56.4,56.4 -11.3,0 -22.5,0 -22.5,-33.8 0,-33.8 33.8,-67.6 33.8,-90.2 H 64.8 c 0,0 45.1,67.6 45.1,112.7 0,45.1 -11.3,78.9 -11.3,101.4 0,22.6 56.4,45.1 78.9,56.4 22.5,11.3 56.4,45.1 56.4,78.9 0,33.8 -11.3,78.9 -45.1,78.9 -33.8,0 -56.4,-22.5 -67.6,-22.5 -11.3,0 -11.3,0 -11.3,11.3 0,11.3 11.3,11.3 22.5,11.3 11.3,0 22.5,11.3 45.1,11.3 22.5,0 67.6,22.5 67.6,56.4 h 124 c 0.1,-45.2 -33.7,-45.2 -33.7,-56.5 z" id="path7" style="fill:#3333ca"/></g><g id="g9"><linearGradient gradientUnits="userSpaceOnUse" id="SVGID_1_" x1="64.839302" x2="391.7475" y1="259.7858" y2="259.7858"><stop id="stop12" offset="0" style="stop-color:#2aa4f6;stop-opacity:1"/><stop id="stop14" offset="1" style="stop-color:#004ee9;stop-opacity:1"/></linearGradient><path d="m 335.4,459 c 0,-11.3 0,-22.6 11.3,-22.6 11.3,0 22.5,11.3 33.8,11.3 11.3,0 11.3,-11.3 11.3,-22.5 0,-11.3 -33.8,-22.6 -33.8,-33.8 0,-11.2 -33.8,0 -45.1,-11.3 -11.3,-11.3 -45.1,-56.4 -45.1,-67.6 0,-11.3 -11.3,-11.3 -11.3,-33.8 0,-22.5 67.6,-45.1 67.6,-56.4 0,-11.3 0,-11.3 -11.3,-11.3 -11.3,0 -45.1,33.8 -56.4,33.8 -11.3,0 -22.5,-11.3 -22.5,-33.8 0,-22.5 33.8,-90.2 33.8,-101.5 0,-11.3 0,-22.5 -11.3,-22.5 -11.3,0 -45.1,56.4 -56.4,56.4 -11.3,0 -22.5,0 -22.5,-33.8 0,-33.8 33.8,-77.6 33.8,-100.2 H 64.8 c 0,0 45.1,77.6 45.1,122.7 0,45.1 -11.3,78.9 -11.3,101.4 0,22.6 56.4,45.1 78.9,56.4 22.5,11.3 56.4,45.1 56.4,78.9 0,33.8 -11.3,78.9 -45.1,78.9 -33.8,0 -56.4,-22.5 -67.6,-22.5 -11.3,0 -11.3,0 -11.3,11.3 0,11.3 11.3,11.3 22.5,11.3 11.3,0 22.5,11.3 45.1,11.3 20.9,0 61.3,19.4 67,49.3 0.4,2.3 124.6,2.7 124.4,0.6 -3,-38.8 -33.5,-39.3 -33.5,-50 z" id="path16" style="fill:url(#linearGradient3191)"/></g><linearGradient gradientUnits="userSpaceOnUse" id="SVGID_2_" x1="128.3446" x2="128.3446" y1="9.3394003" y2="505.33939"><stop id="stop19" offset="0" style="stop-color:#ffeddb;stop-opacity:1"/><stop id="stop21" offset="1" style="stop-color:#ffe7c9;stop-opacity:1"/></linearGradient><path d="m 66.3,9.3 c 0,0 50.1,67.6 50.1,112.7 0,45.1 -17.8,78.9 -17.8,101.4 0,22.6 56.4,45.1 78.9,56.4 22.5,11.3 56.9,45.1 56.9,78.9 0,33.8 -11.8,80.4 -45.6,80.4 -33.8,0 -53.1,-23.9 -64.4,-23.9 -11.3,0 -14,-0.2 -14,11.1 0,11.3 10.7,12.9 22,12.9 11.3,0 22.5,8.1 45.1,8.1 22.5,0 70.6,24 70.6,57.9 H 8.5 V 9.3 h 57.8 z" id="path23" style="fill:url(#linearGradient3193)"/><linearGradient gradientUnits="userSpaceOnUse" id="SVGID_3_" x1="339.47791" x2="339.47791" y1="9.3394003" y2="505.33939"><stop id="stop26" offset="0" style="stop-color:#ffeddb;stop-opacity:1"/><stop id="stop28" offset="1" style="stop-color:#ffe7c9;stop-opacity:1"/></linearGradient><path d="m 206.9,9.3 c 0,22.5 -32.4,56.4 -32.4,90.2 0,33.8 14.4,33.8 25.6,33.8 11.3,0 45.1,-57.9 56.4,-57.9 8.3,0 8.3,12.8 8.3,24 0,11.3 -32.3,78.9 -32.3,101.5 0,22.5 12.7,32.4 24,32.4 11.3,0 45.1,-33.9 56.4,-33.9 11.3,0 9.8,1.5 9.8,12.8 0,11.3 -66.1,33.8 -66.1,56.4 0,22.5 11.3,22.5 11.3,33.8 0,11.3 33.8,56.4 45.1,67.6 11.3,11.3 42.8,3 42.8,11.3 0,11.3 35.5,22.2 35.5,33.5 0,11.3 0.6,20.5 -10.7,20.5 -11.3,0 -22.5,-12 -33.8,-12 -11.3,0 -16.2,14.4 -16.2,25.6 0,11.3 33.5,11.3 33.5,56.4 H 504.6 V 9.3 H 206.9 z" id="path30" style="fill:url(#linearGradient3195)"/><path d="m 414.3,347.3 c 11.3,0 50.2,34 50.2,45.3 0,11.3 -5.1,22.7 -16.4,22.7 -11.3,0 -22.5,-11.5 -22.5,-22.7 0,-11.3 -37.1,-11.3 -37.1,-22.5 0,-11.3 14.5,-22.8 25.8,-22.8 z m 90.2,-108 c 0,0 -58,6.7 -58,29.3 0,22.5 24,11.3 24,22.5 0,11.3 -8,11.3 -8,22.5 0,11.2 42,19.1 42,41.6 V 239.3 z m 0,158 c -22.5,0 -33.8,42 -67.6,42 -33.8,0 -64.4,0 -64.4,20.9 0,22.5 19.3,22.5 19.3,45.1 h 112.7 v -108 z m -165.4,-32 c 11,0 33.3,-11.2 33.3,-21.8 0,-10.6 -22.3,-54.2 -44.4,-54.2 -22,0 -21.6,22.3 -21.6,33 0,10.6 22,10.6 22,21.2 0.1,10.7 0.1,21.8 10.7,21.8 z m 41.4,-100 c 22.5,0 45.1,-41.8 67.6,-41.8 22.5,0 56.4,-11.3 56.4,-11.3 V 9.3 c 0,0 -180.4,0 -180.4,45.1 0,45.1 -11.3,67.6 -22.5,67.6 -11.3,0 -47.1,33.8 -47.1,56.4 0,22.5 2,36.9 13.3,36.9 11.3,0 11.3,-25.6 22.6,-25.6 11.3,0 22.2,-11.3 22.2,-22.5 0,-11.3 0.4,-33.8 11.6,-33.8 11.3,0 22.5,11.3 22.5,22.5 0,11.3 11.3,11.5 11.3,11.5 0,0 11.3,-11.5 22.5,-11.5 11.3,0 22.5,-22.5 33.8,-22.5 11.3,0 24,0 24.2,22.5 0.1,21.5 -12.9,19.5 -35.5,19.5 -22.5,0 -56.4,36.9 -56.4,59.5 0.1,22.4 22.6,30.4 33.9,30.4 z M 222.7,43.2 c 0,11.3 -24.2,22.5 -24.2,33.8 0,11.3 1.6,22.4 12.9,22.4 22.5,0 11.3,-33.6 33.8,-33.6 22.5,0 22.5,9.6 33.8,9.6 11.3,0 23.5,0 22.5,-9.6 -1.1,-11.2 0,-22.4 -22.5,-22.4 -22.5,0 -33.8,-26 -45.1,-26 -11.2,-0.1 -11.2,14.5 -11.2,25.8 z" id="path32" style="fill:#007000"/><path d="m 16.7,505.3 c 0,0 3,-24 25.6,-24 22.5,0 11.3,-10 22.5,-10 11.3,0 35.6,34 35.6,34 H 16.7 z m 127,-98 c 22.5,0 7.5,-26 30.1,-26 16.5,0 16.7,-11.3 16.7,-22.5 0,-11.3 -35.5,-27.5 -58,-27.5 -22.5,0 -42,4.9 -42,16.2 0,11.3 19.5,11.3 19.5,22.5 0,11.3 22.5,0 22.5,11.3 0,11.3 0,26 11.2,26 z M 8.5,437.7 c 0,11.3 0,27.6 11.3,27.6 11.3,0 38.3,-16.4 38.3,-27.6 0,-11.3 -16.5,-11.3 -16.5,-22.5 0,-11.3 16.9,-11.3 16.9,-22.6 0,-11.3 -25.2,-11.3 -25.2,-22.5 0,-11.3 -24.8,-14.7 -24.8,-14.7 0,0 0,71 0,82.3 z M 31,339.3 c 22.5,0 33.8,-14.4 45.1,-14.4 11.3,0 24.4,0 24.4,-11.3 0,-11.3 -24.4,-11.3 -24.4,-33.8 0,-22.5 -11.3,-22.5 -11.3,-45.1 0,-22.6 -11.3,-33.8 -22.5,-33.8 -11.3,0 -11.3,-9.8 -33.8,-9.8 0,33.8 0,77.4 0,100 0,22.6 22.5,48.2 22.5,48.2 z M 8.5,133.3 c 0,11.3 0,33.1 11.3,33.1 11.3,0 21.8,-10.5 21.8,-33.1 0,-22.5 -33.1,-45.1 -33.1,-45.1 0,0 0,33.9 0,45.1 z m 0,-90.1 c 0,0 0,11.3 11.3,11.3 11.3,0 13.5,0 13.5,-11.3 C 33.3,31.9 8.5,20.7 8.5,20.7 v 22.5 z" id="path34" style="fill:#007000"/><linearGradient gradientUnits="userSpaceOnUse" id="SVGID_4_" x1="351.47791" x2="351.47791" y1="13.1767" y2="518.72559"><stop id="stop37" offset="0" style="stop-color:#00dc00;stop-opacity:1"/><stop id="stop39" offset="0.1753" style="stop-color:#00d400;stop-opacity:1"/><stop id="stop41" offset="0.4492" style="stop-color:#00be00;stop-opacity:1"/><stop id="stop43" offset="0.78560001" style="stop-color:#009a00;stop-opacity:1"/><stop id="stop45" offset="1" style="stop-color:#007f00;stop-opacity:1"/></linearGradient><path d="m 414.3,337.3 c 11.3,0 50.2,34 50.2,45.3 0,11.3 -5.1,22.7 -16.4,22.7 -11.3,0 -22.5,-11.5 -22.5,-22.7 0,-11.3 -37.1,-11.3 -37.1,-22.5 0,-11.3 14.5,-22.8 25.8,-22.8 z m 90.2,-108 c 0,0 -58,6.7 -58,29.3 0,22.5 24,11.3 24,22.5 0,11.3 -8,11.3 -8,22.5 0,11.2 42,19.1 42,41.6 V 229.3 z m 0,158 c -22.5,0 -33.8,42 -67.6,42 -33.8,0 -64.4,0 -64.4,20.9 0,22.5 19.3,32.5 19.3,55.1 h 112.7 v -118 z m -165.4,-32 c 11,0 33.3,-11.2 33.3,-21.8 0,-10.6 -22.3,-54.2 -44.4,-54.2 -22,0 -21.6,22.3 -21.6,33 0,10.6 22,10.6 22,21.2 0.1,10.7 0.1,21.8 10.7,21.8 z m 41.4,-100 c 22.5,0 45.1,-41.8 67.6,-41.8 22.5,0 56.4,-11.3 56.4,-11.3 V 21.3 c 0,0 0,-23.8 -94,-15.9 -44,3.7 -86.4,17.1 -86.4,39 0,45.1 -11.3,67.6 -22.5,67.6 -11.3,0 -47.1,33.8 -47.1,56.4 0,22.5 2,36.9 13.3,36.9 11.3,0 11.3,-25.6 22.6,-25.6 11.3,0 22.2,-11.3 22.2,-22.5 0,-11.3 0.4,-33.8 11.6,-33.8 11.3,0 22.5,11.3 22.5,22.5 0,11.3 11.3,11.5 11.3,11.5 0,0 11.3,-11.5 22.5,-11.5 11.3,0 22.5,-22.5 33.8,-22.5 11.3,0 24,0 24.2,22.5 0.1,21.5 -12.9,19.5 -35.5,19.5 -22.5,0 -56.4,36.9 -56.4,59.5 0.1,22.4 22.6,30.4 33.9,30.4 z M 222.7,33.2 c 0,11.3 -24.2,22.5 -24.2,33.8 0,11.3 1.6,22.4 12.9,22.4 22.5,0 11.3,-33.6 33.8,-33.6 22.5,0 22.5,9.6 33.8,9.6 11.3,0 23.5,0 22.5,-9.6 -1.1,-11.2 0,-22.4 -22.5,-22.4 -22.5,0 -33.8,-26 -45.1,-26 -11.2,-0.1 -11.2,14.5 -11.2,25.8 z" id="path47" style="fill:url(#linearGradient3197)"/><linearGradient gradientUnits="userSpaceOnUse" id="SVGID_5_" x1="99.477898" x2="99.477898" y1="8.5118999" y2="518.85248"><stop id="stop50" offset="0" style="stop-color:#00dc00;stop-opacity:1"/><stop id="stop52" offset="0.1753" style="stop-color:#00d400;stop-opacity:1"/><stop id="stop54" offset="0.4492" style="stop-color:#00be00;stop-opacity:1"/><stop id="stop56" offset="0.78560001" style="stop-color:#009a00;stop-opacity:1"/><stop id="stop58" offset="1" style="stop-color:#007f00;stop-opacity:1"/></linearGradient><path d="m 16.7,505.3 c 0,0 3,-34 25.6,-34 22.5,0 11.3,-10 22.5,-10 11.3,0 35.6,44 35.6,44 H 16.7 z m 127,-108 c 22.5,0 7.5,-26 30.1,-26 16.5,0 16.7,-11.3 16.7,-22.5 0,-11.3 -35.5,-27.5 -58,-27.5 -22.5,0 -42,4.9 -42,16.2 0,11.3 19.5,11.3 19.5,22.5 0,11.3 22.5,0 22.5,11.3 0,11.3 0,26 11.2,26 z M 8.5,427.7 c 0,11.3 0,27.6 11.3,27.6 11.3,0 38.3,-16.4 38.3,-27.6 0,-11.3 -16.5,-11.3 -16.5,-22.5 0,-11.3 16.9,-11.3 16.9,-22.6 0,-11.3 -25.2,-11.3 -25.2,-22.5 0,-11.3 -24.8,-14.7 -24.8,-14.7 0,0 0,71 0,82.3 z M 31,329.3 c 22.5,0 33.8,-14.4 45.1,-14.4 11.3,0 24.4,0 24.4,-11.3 0,-11.3 -24.4,-11.3 -24.4,-33.8 0,-22.5 -11.3,-22.5 -11.3,-45.1 0,-22.6 -11.3,-33.8 -22.5,-33.8 -11.3,0 -11.3,-9.8 -33.8,-9.8 0,33.8 0,77.4 0,100 0,22.6 22.5,48.2 22.5,48.2 z M 8.5,123.3 c 0,11.3 0,33.1 11.3,33.1 11.3,0 21.8,-10.5 21.8,-33.1 0,-22.5 -33.1,-45.1 -33.1,-45.1 0,0 0,33.9 0,45.1 z m 0,-90.1 c 0,0 0,11.3 11.3,11.3 11.3,0 13.5,0 13.5,-11.3 C 33.3,21.9 8.5,10.7 8.5,10.7 v 22.5 z" id="path60" style="fill:url(#linearGradient3199)"/><g id="g62"><path d="m 8.5,43.3 h 33.8 c 0,0 32.2,0 32.2,33.6 0,34.4 0,101.5 0,124 0,22.5 46.7,56.4 58,67.6 11.3,11.3 34,33.8 34,67.6 0,45.1 -79.1,67.6 -79.1,90.2 0,22.6 79.1,45.1 79.1,78.9 h -22.7 c 0,-21.9 -77.3,-33.8 -77.3,-78.9 0,-45.1 78,-60.7 78,-90.2 0,-22.5 -23.3,-45.1 -34.5,-56.4 -11.3,-11.3 -59.5,-45.1 -59.5,-67.6 0,-22.5 0,-78.9 0,-112.7 C 50.5,67.3 31,67.3 31,67.3 H 8.5 v -24 z" id="path64" style="fill:#97930a"/><path d="m 155,335.3 c 0,0 87,0.9 120.9,-32.9 33.8,-33.8 59.5,-67.6 82,-112.7 22.5,-45.1 67.6,-106.4 146.5,-106.4 v 24 c -78.9,0 -112.7,59.8 -135.3,104.9 -22.5,45.1 -56.4,78.9 -90.2,112.7 -33.8,33.8 -124,32.4 -124,32.4 v -22 z" id="path66" style="fill:#97930a"/></g><g id="g68"><path d="m 8.5,33.3 h 33.8 c 0,0 32.2,0 32.2,33.6 0,34.4 0,101.5 0,124 0,22.5 46.7,56.4 58,67.6 11.3,11.3 34,33.8 34,67.6 0,45.1 -79.1,67.6 -79.1,90.2 0,20.5 65.1,40.9 77.2,69.8 1.2,3 1.9,16 1.9,19.1 h -22.7 c 0,-2.7 -1.2,-15.3 -3.3,-17.8 -14.7,-17.6 -74,-31.6 -74,-71.1 0,-45.1 78,-60.7 78,-90.2 0,-22.5 -23.3,-45.1 -34.5,-56.4 -11.3,-11.3 -59.5,-45.1 -59.5,-67.6 0,-22.5 0,-78.9 0,-112.7 C 50.5,57.3 31,57.3 31,57.3 H 8.5 v -24 z" id="path70" style="fill:#ffaa00"/><path d="m 155,325.3 c 0,0 87,0.9 120.9,-32.9 33.8,-33.8 59.5,-67.6 82,-112.7 22.5,-45.1 67.6,-106.4 146.5,-106.4 v 24 c -78.9,0 -112.7,59.8 -135.3,104.9 -22.5,45.1 -56.4,78.9 -90.2,112.7 -33.8,33.8 -124,32.4 -124,32.4 v -22 z" id="path72" style="fill:#ffaa00"/></g><g id="g74"><linearGradient gradientUnits="userSpaceOnUse" id="SVGID_6_" x1="118.4741" x2="118.4741" y1="162.55431" y2="246.8448"><stop id="stop77" offset="0" style="stop-color:#fb3300;stop-opacity:1"/><stop id="stop79" offset="0.5" style="stop-color:#e81c24;stop-opacity:1"/><stop id="stop81" offset="1" style="stop-color:#af1502;stop-opacity:1"/></linearGradient><path d="M 68.5,152.3 H 157 c 10.1,0 15.2,12.3 8,19.4 l -96.6,96.6 v -116 z" id="path83" style="fill:url(#linearGradient3201)"/><path d="m 157,157.3 c 4,0 5.5,3 5.9,3.9 0.4,0.9 1.4,4.2 -1.4,7 l -88,88 V 157.3 H 157 m 0,-5 H 68.5 v 116 l 96.6,-96.6 c 7.2,-7.1 2.1,-19.4 -8.1,-19.4 l 0,0 z" id="path85" style="fill:#820906"/><linearGradient gradientUnits="userSpaceOnUse" id="SVGID_7_" x1="118.4722" x2="118.4722" y1="157.22099" y2="243.6566"><stop id="stop88" offset="0" style="stop-color:#990900;stop-opacity:1"/><stop id="stop90" offset="1" style="stop-color:#f51638;stop-opacity:1"/></linearGradient><path d="m 157,162.3 c 0.3,0 0.9,0 1.3,0.9 0.4,0.9 -0.1,1.3 -0.3,1.5 L 78.5,244.2 V 162.3 H 157 m 0,-5 H 73.5 v 98.9 l 88,-88 c 2.8,-2.8 1.8,-6 1.4,-7 -0.4,-1 -1.9,-3.9 -5.9,-3.9 l 0,0 z" id="path92" style="fill:url(#linearGradient3203)"/><linearGradient gradientUnits="userSpaceOnUse" id="SVGID_8_" x1="55.5116" x2="69.378799" y1="257.33939" y2="257.33939"><stop id="stop95" offset="0" style="stop-color:#292929;stop-opacity:1"/><stop id="stop97" offset="1" style="stop-color:#bdbdbd;stop-opacity:1"/></linearGradient><path d="m 62.4,368.3 0,0 c -3.8,0 -6.9,-3.1 -6.9,-6.9 V 153.3 c 0,-3.8 3.1,-6.9 6.9,-6.9 h 0 c 3.8,0 6.9,3.1 6.9,6.9 v 208.1 c 0.1,3.8 -3,6.9 -6.9,6.9 z" id="path99" style="fill:url(#linearGradient3205)"/></g><g id="g101"><linearGradient gradientUnits="userSpaceOnUse" id="SVGID_9_" x1="353.47409" x2="353.47409" y1="46.554298" y2="130.8448"><stop id="stop104" offset="0" style="stop-color:#fb3300;stop-opacity:1"/><stop id="stop106" offset="0.5" style="stop-color:#e81c24;stop-opacity:1"/><stop id="stop108" offset="1" style="stop-color:#af1502;stop-opacity:1"/></linearGradient><path d="M 303.5,36.3 H 392 c 10.1,0 15.2,12.3 8,19.4 l -96.6,96.6 v -116 z" id="path110" style="fill:url(#linearGradient3207)"/><path d="m 392,41.3 c 4,0 5.5,3 5.9,3.9 0.4,0.9 1.4,4.2 -1.4,7 l -88,88 V 41.3 H 392 m 0,-5 h -88.5 v 116 l 96.6,-96.6 c 7.2,-7.1 2.1,-19.4 -8.1,-19.4 l 0,0 z" id="path112" style="fill:#820906"/><linearGradient gradientUnits="userSpaceOnUse" id="SVGID_10_" x1="353.4722" x2="353.4722" y1="41.221001" y2="127.6566"><stop id="stop115" offset="0" style="stop-color:#990900;stop-opacity:1"/><stop id="stop117" offset="1" style="stop-color:#f51638;stop-opacity:1"/></linearGradient><path d="m 392,46.3 c 0.3,0 0.9,0 1.3,0.9 0.4,0.9 -0.1,1.3 -0.3,1.5 l -79.5,79.5 V 46.3 H 392 m 0,-5 h -83.5 v 98.9 l 88,-88 c 2.8,-2.8 1.8,-6 1.4,-7 -0.4,-1 -1.9,-3.9 -5.9,-3.9 l 0,0 z" id="path119" style="fill:url(#linearGradient3209)"/><linearGradient gradientUnits="userSpaceOnUse" id="SVGID_11_" x1="290.5116" x2="304.37881" y1="141.3394" y2="141.3394"><stop id="stop122" offset="0" style="stop-color:#292929;stop-opacity:1"/><stop id="stop124" offset="1" style="stop-color:#bdbdbd;stop-opacity:1"/></linearGradient><path d="m 297.4,252.3 0,0 c -3.8,0 -6.9,-3.1 -6.9,-6.9 V 37.3 c 0,-3.8 3.1,-6.9 6.9,-6.9 l 0,0 c 3.8,0 6.9,3.1 6.9,6.9 v 208.1 c 0.1,3.8 -3,6.9 -6.9,6.9 z" id="path126" style="fill:url(#linearGradient3211)"/></g><g id="g128"><path d="m 492.5,6.3 c 8.3,0 15,6.7 15,15 v 472 c 0,8.3 -6.7,15 -15,15 h -472 c -8.3,0 -15,-6.7 -15,-15 v -472 c 0,-8.3 6.7,-15 15,-15 h 472 m 0,-5 h -472 c -11,0 -20,9 -20,20 v 472 c 0,11 9,20 20,20 h 472 c 11,0 20,-9 20,-20 v -472 c 0,-11 -9,-20 -20,-20 l 0,0 z" id="path130" style="fill:#babcbe"/></g><path d="m 492.5,11.3 c 5.5,0 10,4.5 10,10 v 472 c 0,5.5 -4.5,10 -10,10 h -472 c -5.5,0 -10,-4.5 -10,-10 v -472 c 0,-5.5 4.5,-10 10,-10 h 472 m 0,-5 h -472 c -8.3,0 -15,6.7 -15,15 v 472 c 0,8.3 6.7,15 15,15 h 472 c 8.3,0 15,-6.7 15,-15 v -472 c 0,-8.2 -6.8,-15 -15,-15 l 0,0 z" id="path132" style="fill:#ffffff"/><path d="m 10.5,21.3 h 492 c 0,-5.5 -4.5,-10 -10,-10 h -472 c -5.5,0 -10,4.5 -10,10 z" id="path134" style="opacity:0.83999999;fill:#ffffff"/></g></g></svg>